Coordinates
version=1
nRows=19
nColumns=36
inDegrees=yes

Units are S.I. units (second, meters, Newtons, ...)
If the header above contains a line with 'inDegrees', this indicates whether rotational values are in degrees (yes) or radians (no).

endheader
time	pelvis_tilt	pelvis_list	pelvis_rotation	pelvis_tx	pelvis_ty	pelvis_tz	hip_flexion_r	hip_adduction_r	hip_rotation_r	knee_angle_r	knee_angle_r_beta	ankle_angle_r	subtalar_angle_r	mtp_angle_r	hip_flexion_l	hip_adduction_l	hip_rotation_l	knee_angle_l	knee_angle_l_beta	ankle_angle_l	subtalar_angle_l	mtp_angle_l	lumbar_extension	lumbar_bending	lumbar_rotation	arm_flex_r	arm_add_r	arm_rot_r	elbow_flex_r	pro_sup_r	arm_flex_l	arm_add_l	arm_rot_l	elbow_flex_l	pro_sup_l
     13.73000000	    -23.88484251	     -0.83861744	      5.21213087	     -0.51634621	      0.61094057	     -0.64088684	    108.87944767	    -15.48933349	      2.37302405	     98.67372123	      1.72218132	     16.60630928	     -7.42192202	     -7.49999987	    107.70318738	     -2.86983804	     -0.09399646	     98.25922959	      1.71494708	     16.22202642	     -7.63440518	     -7.49999987	    -49.17545242	      2.56354304	     -1.48755759	     56.87159886	    -33.76018474	     -1.61309132	    105.09515807	    102.13048825	     65.44708936	    -34.74433285	      0.63321067	    106.13261426	     93.20828777
     13.74000000	    -23.80201802	     -0.88594258	      5.14025766	     -0.51056276	      0.61469686	     -0.64071375	    108.01533942	    -15.39937734	      2.26579782	     98.62065468	      1.72125513	     17.47532816	     -6.96649350	     -7.49999987	    106.98024170	     -2.73861268	      0.23322107	     98.31201858	      1.71586842	     16.93285304	     -7.34028216	     -7.49999987	    -48.63130637	      2.52265781	     -1.41534300	     55.10888716	    -33.83649205	     -2.73060332	    105.89263385	    102.07066572	     63.76713176	    -34.90875623	     -0.57479715	    106.97156966	     93.15627172
     13.75000000	    -23.53021693	     -0.91721160	      5.05638120	     -0.50458357	      0.61860728	     -0.64032830	    106.97975663	    -15.28936299	      2.11412780	     98.65659095	      1.72188234	     18.12308000	     -6.96557125	     -7.49999987	    106.09623554	     -2.72248043	      0.47059972	     98.44995893	      1.71827593	     17.49909460	     -7.38516559	     -7.49999987	    -48.15250509	      2.45843767	     -1.34168977	     53.31091532	    -33.97434790	     -3.53929357	    106.51110280	    102.03523002	     62.01775910	    -35.31621879	     -1.31325140	    107.56307334	     93.13237998
     13.76000000	    -23.30727420	     -0.97817781	      4.96459105	     -0.49867414	      0.62256350	     -0.63974060	    105.97355721	    -15.12388955	      1.90234632	     98.65984642	      1.72193916	     18.73392770	     -7.03135994	     -7.49999987	    105.25304609	     -2.78935380	      0.70674284	     98.53854185	      1.71982200	     18.02222602	     -7.34941482	     -7.49999987	    -47.55757786	      2.40056755	     -1.26400548	     51.39749435	    -34.08138474	     -4.44645238	    107.15591143	    102.00190980	     60.04223674	    -35.76083509	     -2.07053400	    108.11242513	     93.10779842
     13.77000000	    -23.17782687	     -1.08530689	      4.87579434	     -0.49284318	      0.62695118	     -0.63913517	    104.96275624	    -14.93849561	      1.64791239	     98.52210284	      1.71953508	     19.47870044	     -7.04273281	     -7.49999987	    104.39976331	     -2.81081962	      1.01995977	     98.46476816	      1.71853440	     18.78115067	     -7.15481822	     -7.49999987	    -46.89798523	      2.36320369	     -1.16298825	     49.28429992	    -34.00373432	     -5.67007425	    108.03173788	    101.95171310	     57.94653893	    -36.02790491	     -3.14287087	    108.95425336	     93.04803745
     13.78000000	    -22.88529972	     -1.09568411	      4.83466149	     -0.48689105	      0.63180371	     -0.63869743	    103.81525401	    -14.82414218	      1.51040737	     98.41757106	      1.71771066	     20.07710858	     -6.97493295	     -7.49999987	    103.31942010	     -2.75839485	      1.25415213	     98.39586931	      1.71733189	     19.47895332	     -7.03265185	     -7.49999987	    -46.31541124	      2.30356761	     -1.14165340	     47.19382780	    -34.01913241	     -6.72537117	    108.64994835	    101.89308638	     55.78906971	    -36.21191338	     -4.06726528	    109.55998106	     92.94957831
     13.79000000	    -22.48036490	     -1.08296517	      4.80507285	     -0.48087541	      0.63711044	     -0.63832904	    102.52464234	    -14.75452789	      1.38909031	     98.28210497	      1.71534633	     20.60090297	     -6.86623329	     -7.49999987	    102.09548737	     -2.72834390	      1.44162026	     98.29674747	      1.71560189	     20.03434370	     -6.96272914	     -7.49999987	    -45.78389436	      2.24355490	     -1.14589595	     45.11631148	    -34.09286670	     -7.62080551	    109.06070667	    101.83164519	     53.54952338	    -36.37701571	     -4.87495232	    109.96931320	     92.85821828
     13.80000000	    -22.10152195	     -1.13756173	      4.73784616	     -0.47477627	      0.64286573	     -0.63777024	    101.12556038	    -14.65686383	      1.10465019	     98.01194110	      1.71063108	     21.38915368	     -6.68133602	     -7.49999987	    100.82774600	     -2.75480341	      1.69889668	     98.09189383	      1.71202652	     20.78043557	     -6.78421215	     -7.49999987	    -45.24949494	      2.20624909	     -1.08571318	     42.89176159	    -33.91345601	     -8.73401296	    109.71519232	    101.74328188	     51.14616525	    -36.35607599	     -6.03056343	    110.60386120	     92.73824383
     13.81000000	    -21.71784877	     -1.18442352	      4.65811334	     -0.46865387	      0.64891057	     -0.63710802	     99.66939467	    -14.50438228	      0.82566676	     97.67066733	      1.70467473	     22.12048860	     -6.52709034	     -7.49999987	     99.51365980	     -2.81458689	      1.93047260	     97.82995804	      1.70745487	     21.48483920	     -6.53141963	     -7.49999987	    -44.65134205	      2.14798425	     -1.04372731	     40.66261005	    -33.71661942	     -9.72751358	    110.21128013	    101.63023838	     48.66220155	    -36.28458819	     -7.10940363	    111.07678012	     92.58894504
     13.82000000	    -21.24762883	     -1.16197815	      4.59348163	     -0.46239424	      0.65545842	     -0.63649525	     98.10544312	    -14.38127580	      0.59389433	     97.29079976	      1.69804479	     22.75022159	     -6.43509377	     -7.49999987	     98.02740898	     -2.87987844	      2.06352279	     97.50713688	      1.70182058	     22.16418334	     -6.35477588	     -7.49999987	    -44.10297956	      2.05251471	     -1.05581947	     38.43998768	    -33.47883529	    -10.64998352	    110.61105834	    101.51251993	     46.11443754	    -36.14506672	     -8.16920768	    111.45687396	     92.44534751
     13.83000000	    -20.71792627	     -1.12557722	      4.54306764	     -0.45602735	      0.66251592	     -0.63594989	     96.43338954	    -14.29785061	      0.35005440	     96.84414303	      1.69024916	     23.37810652	     -6.25997173	     -7.49999987	     96.40971942	     -2.95773931	      2.16129253	     97.10423011	      1.69478853	     22.86117907	     -6.14920943	     -7.49999987	    -43.59584245	      1.96616316	     -1.12001300	     36.23755610	    -33.19659445	    -11.47628969	    110.95331060	    101.36432229	     43.46558447	    -35.95372536	     -9.24992603	    111.82157618	     92.29425068
     13.84000000	    -20.13982077	     -1.11770229	      4.46166758	     -0.44962175	      0.66981999	     -0.63523000	     94.68171267	    -14.18248378	      0.02968572	     96.35707821	      1.68174827	     23.92491211	     -6.16733338	     -7.49999987	     94.73164966	     -3.10972281	      2.24126440	     96.66498706	      1.68712230	     23.45607448	     -6.03141144	     -7.49999987	    -43.06365918	      1.87680336	     -1.16691105	     34.04387235	    -32.89718399	    -12.11633588	    111.14195794	    101.22760873	     40.82304625	    -35.78239664	    -10.14513985	    111.99414790	     92.18246813
     13.85000000	    -19.59272865	     -1.14615542	      4.34849835	     -0.44322096	      0.67740372	     -0.63429355	     92.88641205	    -13.97673252	     -0.32750563	     95.75928962	      1.67131489	     24.41980786	     -6.11200651	     -7.49999987	     93.05005070	     -3.32375467	      2.35315406	     96.14293858	      1.67801083	     23.98284159	     -5.87399441	     -7.49999987	    -42.46003995	      1.79152597	     -1.17236031	     31.84734345	    -32.58455484	    -12.61346170	    111.29630644	    101.10774882	     38.17402734	    -35.49987192	    -10.97789521	    112.06273261	     92.09163866
     13.86000000	    -19.01063924	     -1.27032052	      4.23124800	     -0.43668023	      0.68531804	     -0.63336844	     90.96190807	    -13.75359342	     -0.78851062	     95.10388875	      1.65987599	     25.22024600	     -5.66904780	     -7.49999987	     91.30286411	     -3.59810560	      2.56462031	     95.59445124	      1.66843792	     25.06506728	     -4.84649092	     -7.49999987	    -41.86523329	      1.85046709	     -1.47847489	     30.15251725	    -31.96417086	    -12.40039267	    111.28977460	    100.49789726	     34.92272330	    -35.23323964	    -12.57968300	    112.54630476	     91.75217128
     13.87000000	    -18.47918987	     -1.17602287	      4.19310118	     -0.43022105	      0.69361921	     -0.63283247	     89.14098436	    -13.63280840	     -0.99181927	     94.32681624	      1.64631352	     25.43546698	     -5.75195532	     -7.49999987	     89.49265182	     -3.67904175	      2.49653439	     94.85608976	      1.65555108	     25.27375254	     -4.97614742	     -7.49999987	    -41.15629152	      1.72680926	     -1.53787975	     27.96041646	    -31.75467854	    -12.69154111	    111.21812042	    100.42711685	     32.31718258	    -34.76881343	    -12.98776612	    112.23020636	     91.69598556
     13.88000000	    -17.83705966	     -1.11308821	      4.15577615	     -0.42360623	      0.70242019	     -0.63218405	     87.12432006	    -13.49863925	     -1.26119988	     93.48106069	      1.63155230	     25.77783399	     -5.82383579	     -7.49999987	     87.52309164	     -3.80619131	      2.44324099	     94.03315198	      1.64118811	     25.62580123	     -5.07210952	     -7.49999987	    -40.57949386	      1.62003611	     -1.59750729	     25.81590820	    -31.35445934	    -13.04398297	    111.26827330	    100.34425968	     29.70541189	    -34.11895666	    -13.58964675	    111.97832879	     91.66155694
     13.89000000	    -17.12147673	     -1.08553241	      4.07783537	     -0.41683508	      0.71153185	     -0.63127939	     84.98863588	    -13.28305579	     -1.57263601	     92.60047875	      1.61618324	     26.21003391	     -5.86194161	     -7.49999987	     85.44340047	     -3.99441047	      2.44634322	     93.17961014	      1.62629099	     26.08890885	     -5.07994598	     -7.49999987	    -40.06236528	      1.51824272	     -1.67844861	     23.75302937	    -30.75057476	    -13.36131311	    111.37600474	    100.23637873	     27.11091405	    -33.36685916	    -14.27378050	    111.75522688	     91.63723673
     13.90000000	    -16.39964358	     -1.11591474	      3.99826806	     -0.40992908	      0.72078524	     -0.63031038	     82.79258934	    -13.08644194	     -1.97996010	     91.69231635	      1.60033282	     26.90467369	     -5.46450452	     -7.49999987	     83.34418415	     -4.24588142	      2.51675839	     92.32451559	      1.61136678	     27.01261304	     -4.27750859	     -7.49999987	    -39.49810262	      1.50593937	     -2.25431593	     22.40419230	    -29.88245822	    -12.71949982	    111.07087890	     99.57309469	     23.80401201	    -32.80144919	    -15.61469756	    111.93523442	     91.63874920
     13.91000000	    -15.72613726	     -1.02255551	      3.96332809	     -0.40315300	      0.73045215	     -0.62962779	     80.64044793	    -12.95923121	     -2.25774982	     90.63133330	      1.58181517	     27.10707560	     -5.55814270	     -7.49999987	     81.20309127	     -4.36564125	      2.39505123	     91.25740030	      1.59274210	     27.21728582	     -4.41945093	     -7.49999987	    -38.85367287	      1.38520214	     -2.43577381	     20.46369087	    -29.32966921	    -12.87945714	    110.95399221	     99.48947717	     21.31043852	    -31.97499340	    -15.82040026	    111.35229524	     91.55449410
